<?xml version="1.0" standalone="no"?>
<!DOCTYPE svg PUBLIC "-//W3C//DTD SVG 20010904//EN"
 "http://www.w3.org/TR/2001/REC-SVG-20010904/DTD/svg10.dtd">
<svg version="1.0" xmlns="http://www.w3.org/2000/svg"
 width="334.000000pt" height="334.000000pt" viewBox="0 0 334.000000 334.000000"
 preserveAspectRatio="xMidYMid meet">
<metadata>
Created by potrace 1.11, written by Peter Selinger 2001-2013
</metadata>
<g transform="translate(0.000000,334.000000) scale(0.100000,-0.100000)"
fill="#000000" stroke="none">
<path d="M0 1670 l0 -1250 1670 0 1670 0 0 1250 0 1250 -1670 0 -1670 0 0
-1250z m2390 5 l0 -615 -780 0 -780 0 0 615 0 615 780 0 780 0 0 -615z"/>
<path d="M880 1675 l0 -565 730 0 730 0 0 565 0 565 -730 0 -730 0 0 -565z
m560 320 c0 -64 0 -65 28 -65 25 0 42 -23 192 -252 91 -138 167 -255 168 -260
2 -4 -98 -8 -222 -8 l-226 0 0 210 0 210 30 0 30 0 0 -180 0 -180 151 0 c117
0 149 3 143 13 -4 6 -61 96 -128 199 l-121 188 -92 0 -93 0 0 -265 0 -265 346
0 346 0 -19 29 c-10 16 -108 164 -218 330 l-200 300 -37 1 c-35 0 -38 2 -38
30 0 29 1 30 48 30 l49 0 256 -385 c142 -212 257 -387 257 -390 0 -3 -191 -5
-425 -5 l-425 0 0 325 0 325 70 0 70 0 0 35 c0 34 -1 35 -40 35 -33 0 -40 -3
-40 -20 0 -16 -7 -20 -30 -20 -29 0 -30 1 -30 50 l0 50 100 0 100 0 0 -65z"/>
</g>
</svg>
